<?xml version="1.0" standalone="no"?>
<!DOCTYPE svg PUBLIC "-//W3C//DTD SVG 20010904//EN"
 "http://www.w3.org/TR/2001/REC-SVG-20010904/DTD/svg10.dtd">
<svg version="1.0" xmlns="http://www.w3.org/2000/svg"
 width="38.000000pt" height="34.000000pt" viewBox="0 0 38.000000 34.000000"
 preserveAspectRatio="xMidYMid meet">

<g transform="translate(0.000000,34.000000) scale(0.100000,-0.100000)"
fill="#f81a1a" stroke="none">
<path d="M0 330 c0 -5 13 -10 29 -10 28 0 30 -3 51 -82 12 -46 23 -90 26 -99
3 -9 -2 -19 -11 -23 -22 -8 -19 -47 4 -53 11 -3 22 -15 25 -28 12 -46 76 -40
76 7 0 30 64 22 68 -9 4 -26 37 -39 57 -23 8 7 15 25 15 41 l0 29 -121 0 c-92
0 -120 3 -117 13 3 8 40 13 125 15 l121 3 16 70 c9 39 13 75 10 80 -3 5 -68 9
-144 9 l-140 0 -6 28 c-4 15 -12 30 -18 34 -16 11 -66 10 -66 -2z m152 -105
c4 -21 1 -25 -17 -25 -21 0 -35 17 -35 41 0 5 11 9 24 9 17 0 25 -7 28 -25z
m68 -1 c0 -21 -4 -25 -22 -22 -15 2 -24 11 -26 26 -3 18 1 22 22 22 21 0 26
-5 26 -26z m70 1 c0 -20 -5 -25 -25 -25 -20 0 -25 5 -25 25 0 20 5 25 25 25
20 0 25 -5 25 -25z m66 9 c-3 -9 -6 -20 -6 -25 0 -5 -9 -9 -20 -9 -15 0 -20 7
-20 25 0 20 5 25 26 25 20 0 25 -4 20 -16z m-194 -79 c6 -30 -7 -42 -27 -25
-22 18 -19 50 4 50 12 0 20 -9 23 -25z m58 -6 c0 -24 -4 -30 -17 -27 -11 2
-19 14 -21 31 -3 22 1 27 17 27 17 0 21 -6 21 -31z m58 4 c-2 -17 -9 -28 -18
-28 -9 0 -16 11 -18 28 -3 22 1 27 18 27 17 0 21 -5 18 -27z m62 13 c0 -25
-12 -46 -26 -46 -14 0 -20 41 -7 53 12 12 33 7 33 -7z m-164 -117 c10 -17 -13
-36 -27 -22 -12 12 -4 33 11 33 5 0 12 -5 16 -11z m140 0 c8 -14 -11 -33 -25
-25 -11 7 -4 36 9 36 5 0 12 -5 16 -11z"/>
</g>
</svg>
